HIERARCHY
ROOT Hips
{
	OFFSET -0.001795 -0.223333 0.028219
	CHANNELS 6 Xposition Yposition Zposition Zrotation Yrotation Xrotation 
	JOINT LeftUpLeg
	{
		OFFSET 0.069520 -0.091406 -0.006815
		CHANNELS 3 Zrotation Yrotation Xrotation
		JOINT LeftLeg
		{
			OFFSET 0.034277 -0.375199 -0.004496
			CHANNELS 3 Zrotation Yrotation Xrotation
			JOINT LeftFoot
			{
				OFFSET -0.013596 -0.397961 -0.043693
				CHANNELS 3 Zrotation Yrotation Xrotation
				JOINT LeftToe
				{
					OFFSET 0.026358 -0.055791 0.119288
					CHANNELS 3 Zrotation Yrotation Xrotation
					End Site
					{
						OFFSET 0.000000 0.000000 0.000000
					}
				}
			}
		}
	}
	JOINT RightUpLeg
	{
		OFFSET -0.067670 -0.090522 -0.004320
		CHANNELS 3 Zrotation Yrotation Xrotation
		JOINT RightLeg
		{
			OFFSET -0.038290 -0.382569 -0.008850
			CHANNELS 3 Zrotation Yrotation Xrotation
			JOINT RightFoot
			{
				OFFSET 0.015774 -0.398415 -0.042312
				CHANNELS 3 Zrotation Yrotation Xrotation
				JOINT RightToe
				{
					OFFSET -0.025372 -0.048144 0.123348
					CHANNELS 3 Zrotation Yrotation Xrotation
					End Site
					{
						OFFSET 0.000000 0.000000 0.000000
					}
				}
			}
		}
	}
	JOINT Spine
	{
		OFFSET -0.002533 0.108963 -0.026696
		CHANNELS 3 Zrotation Yrotation Xrotation
		JOINT Spine1
		{
			OFFSET 0.005487 0.135180 0.001092
			CHANNELS 3 Zrotation Yrotation Xrotation
			JOINT Spine2
			{
				OFFSET 0.001457 0.052922 0.025425
				CHANNELS 3 Zrotation Yrotation Xrotation
				JOINT Neck
				{
					OFFSET -0.002778 0.213870 -0.042857
					CHANNELS 3 Zrotation Yrotation Xrotation
					JOINT Head
					{
						OFFSET 0.005152 0.064970 0.051349
						CHANNELS 3 Zrotation Yrotation Xrotation
						End Site
						{
							OFFSET 0.000000 0.000000 0.000000
						}
					}
				}
				JOINT LeftShoulder
				{
					OFFSET 0.078845 0.121749 -0.034090
					CHANNELS 3 Zrotation Yrotation Xrotation
					JOINT LeftArm
					{
						OFFSET 0.090977 0.030469 -0.008868
						CHANNELS 3 Zrotation Yrotation Xrotation
						JOINT LeftForeArm
						{
							OFFSET 0.259612 -0.012772 -0.027456
							CHANNELS 3 Zrotation Yrotation Xrotation
							JOINT LeftHand
							{
								OFFSET 0.249234 0.008986 -0.001171
								CHANNELS 3 Zrotation Yrotation Xrotation
								End Site
								{
									OFFSET 0.000000 0.000000 0.000000
								}
							}
						}
					}
				}
				JOINT RightShoulder
				{
					OFFSET -0.081759 0.118833 -0.038615
					CHANNELS 3 Zrotation Yrotation Xrotation
					JOINT RightArm
					{
						OFFSET -0.096012 0.032551 -0.009143
						CHANNELS 3 Zrotation Yrotation Xrotation
						JOINT RightForeArm
						{
							OFFSET -0.253742 -0.013329 -0.021401
							CHANNELS 3 Zrotation Yrotation Xrotation
							JOINT RightHand
							{
								OFFSET -0.255298 0.007772 -0.005559
								CHANNELS 3 Zrotation Yrotation Xrotation
								End Site
								{
									OFFSET 0.000000 0.000000 0.000000
								}
							}
						}
					}
				}
			}
		}
	}
}
MOTION
Frames: 11
Frame Time: 0.05000000
-5.374351 0.842855 37.377510 2.555911 -13.747821 11.097606 7.673324 0.299946 -52.588074 -14.614609 12.889331 62.311156 8.114418 16.905029 -9.221294 0.000000 0.000000 0.000000 -5.149361 1.163568 -10.488390 6.647045 -0.501330 13.271319 -9.574118 -9.167141 -42.315115 0.000000 0.000000 0.000000 0.245733 0.460862 -11.700476 -2.951097 1.200401 -20.536622 4.676653 17.228591 38.827944 7.238753 0.812889 -37.804347 0.000000 0.000000 0.000000 21.737670 2.041016 2.597076 -83.196344 -5.970413 -13.453804 -26.318962 -24.058135 6.881755 0.000000 0.000000 0.000000 -19.739111 -8.109348 -3.043025 91.435766 13.060989 11.699677 3.662136 41.931584 4.109397 0.000000 0.000000 0.000000 
-5.605636 0.832701 38.993599 2.565024 -15.014788 10.518730 8.805763 1.118692 -53.476500 -13.697359 7.869400 42.341870 8.149377 17.899307 -13.251228 0.000000 0.000000 0.000000 -5.801151 0.875605 -1.217788 6.565110 -0.427343 6.493254 -9.813564 -5.078687 -43.304236 0.000000 0.000000 0.000000 -0.297362 0.419871 -10.802674 -3.108083 1.241051 -21.024213 5.343848 19.571617 38.835147 7.134649 1.122887 -37.833640 0.000000 0.000000 0.000000 22.062566 3.634721 2.771642 -82.647668 -3.713058 -16.370129 -25.669499 -21.617023 5.929926 0.000000 0.000000 0.000000 -20.606659 -8.433198 -3.443995 91.207922 18.415734 18.370862 -1.346784 44.830563 2.505328 0.000000 0.000000 0.000000 
-5.804018 0.815633 40.659096 2.117968 -17.848639 9.802272 10.307490 2.093983 -51.423899 -11.051456 3.551966 21.509284 8.059346 19.014419 -16.360695 0.000000 0.000000 0.000000 -8.498551 1.341936 6.989111 8.058227 -0.472066 3.100480 -10.035807 -1.280893 -44.165748 0.000000 0.000000 0.000000 -0.142904 0.362180 -9.556510 -3.373616 1.293591 -21.252131 5.995551 21.667074 38.625084 6.533659 1.551681 -38.759083 0.000000 0.000000 0.000000 21.140382 4.823053 2.568506 -81.089137 0.409360 -19.416473 -25.925283 -19.883833 5.377962 0.000000 0.000000 0.000000 -21.612572 -8.075567 -3.489269 91.419570 22.447919 23.101868 -8.437079 47.764584 -0.251260 0.000000 0.000000 0.000000 
-5.982276 0.795419 42.444130 1.525291 -20.964520 8.167057 11.925334 3.097371 -48.535346 -10.101073 2.312355 11.471714 8.492954 20.678411 -16.316749 0.000000 0.000000 0.000000 -11.790837 2.491908 13.866233 9.571520 -0.586956 3.192179 -10.221710 3.189511 -44.823452 0.000000 0.000000 0.000000 -0.187736 0.293645 -7.954859 -3.528665 1.319201 -21.593536 6.587665 23.333655 38.483513 6.581946 1.618963 -39.747752 0.000000 0.000000 0.000000 21.609948 5.309329 2.606577 -80.409797 3.476302 -21.627099 -25.480805 -17.126474 4.493897 0.000000 0.000000 0.000000 -21.989448 -7.697319 -3.465404 92.149604 26.267333 27.365320 -15.966916 48.133141 -3.436681 0.000000 0.000000 0.000000 
-6.130015 0.779855 44.372868 1.556464 -22.720832 8.040080 13.231906 4.465402 -51.132988 -14.017543 4.794835 20.777370 9.244366 21.425567 -12.542241 0.000000 0.000000 0.000000 -14.209576 3.681978 17.282643 8.629884 -0.738603 8.515351 -9.974845 4.063900 -43.757482 0.000000 0.000000 0.000000 -0.623430 0.323722 -8.694312 -3.662279 1.343993 -21.629982 7.203914 24.682140 38.513824 6.404571 1.793454 -40.161839 0.000000 0.000000 0.000000 21.008740 5.202323 2.620027 -79.167680 5.014470 -22.499632 -23.705123 -14.241738 3.441436 0.000000 0.000000 0.000000 -21.184918 -7.499092 -3.576803 92.240012 26.246713 27.696589 -16.629898 49.082727 -3.699093 0.000000 0.000000 0.000000 
-6.219512 0.772090 46.356964 2.225421 -22.185426 6.500160 12.400140 4.767844 -54.670744 -16.332659 8.629444 35.735601 8.370086 17.318160 -4.274489 0.000000 0.000000 0.000000 -16.965903 4.462325 18.478372 8.705360 -1.047853 18.890329 -8.511489 5.054884 -38.337874 0.000000 0.000000 0.000000 -1.616742 0.286013 -7.591506 -3.867919 1.402611 -21.630960 6.803491 24.357581 37.959859 6.824173 1.606977 -40.051992 0.000000 0.000000 0.000000 20.096076 3.813175 2.698698 -79.001222 4.372584 -21.917099 -20.521712 -13.676088 2.906709 0.000000 0.000000 0.000000 -19.931542 -7.060764 -3.493888 92.947482 24.062418 25.418783 -13.784504 48.938867 -2.412680 0.000000 0.000000 0.000000 
-6.205512 0.775912 48.204578 3.545633 -20.289717 6.131794 10.426066 3.547587 -55.915287 -17.665330 11.936118 46.906516 7.577058 15.363866 -5.556594 0.000000 0.000000 0.000000 -18.589266 3.562566 9.841978 8.313827 -0.740735 42.522233 -5.133781 4.056349 -25.070283 0.000000 0.000000 0.000000 -2.736794 0.305521 -8.210313 -4.191310 1.499283 -21.303615 6.143714 23.214833 37.720794 6.516927 1.652157 -39.512079 0.000000 0.000000 0.000000 20.699256 2.234441 3.043725 -79.589392 1.508966 -20.052020 -20.188560 -13.681665 2.902818 0.000000 0.000000 0.000000 -19.865748 -6.877378 -3.394645 94.462808 20.113412 21.939871 -8.458964 48.202790 -0.264976 0.000000 0.000000 0.000000 
-6.147039 0.786671 49.769531 4.360909 -16.877099 5.056770 6.427694 0.499279 -51.258638 -15.166368 11.078077 51.781056 7.410449 14.227746 -15.353301 0.000000 0.000000 0.000000 -18.381788 1.901916 -2.350173 9.261881 -0.592402 67.206247 -2.907587 -0.975811 -12.005128 0.000000 0.000000 0.000000 -3.421724 0.262266 -6.767207 -4.125933 1.506149 -21.089731 4.797845 20.554456 37.299025 6.244002 1.571278 -39.198541 0.000000 0.000000 0.000000 20.723558 0.359399 3.142451 -80.666061 -4.115671 -15.705599 -19.667451 -17.026761 3.620011 0.000000 0.000000 0.000000 -19.618784 -6.468134 -3.082270 94.614195 16.243560 16.876784 -0.242228 44.906970 2.822674 0.000000 0.000000 0.000000 
-6.078914 0.803101 51.152367 4.285553 -13.007221 2.443596 2.975642 -1.616808 -41.568785 -13.371887 8.974018 50.205175 7.479411 13.068514 -23.838978 0.000000 0.000000 0.000000 -16.884052 0.710191 -12.433385 11.702263 -3.093624 80.988043 -3.951222 -8.038021 -6.955734 0.000000 0.000000 0.000000 -2.800229 0.137444 -2.702096 -4.022521 1.511190 -21.120816 3.044426 17.506586 36.656013 6.239376 1.334905 -39.076773 0.000000 0.000000 0.000000 19.921755 -0.891258 2.996410 -79.805426 -9.679954 -10.651274 -18.834017 -22.760443 4.743148 0.000000 0.000000 0.000000 -18.998127 -7.089397 -2.894732 95.268226 12.227759 11.389072 7.344645 39.497185 4.866689 0.000000 0.000000 0.000000 
-6.008921 0.819619 52.452763 4.104358 -10.683883 1.784550 0.199663 -2.351427 -31.014103 -11.920560 6.494879 42.739858 7.501728 11.696813 -32.010910 0.000000 0.000000 0.000000 -15.867983 0.236278 -26.470557 13.567080 -6.472277 88.190159 -4.639884 -11.579415 -2.235479 0.000000 0.000000 0.000000 -2.126644 0.083747 -1.070646 -3.340324 1.348229 -21.414042 1.416569 14.085538 36.799176 6.105257 1.044015 -39.141868 0.000000 0.000000 0.000000 20.917017 -1.690972 2.736571 -81.308272 -14.746746 -5.541540 -18.401644 -29.896465 6.380146 0.000000 0.000000 0.000000 -18.358632 -8.211143 -2.627850 94.184479 6.502583 3.110436 14.795977 33.248040 6.093641 0.000000 0.000000 0.000000 
-5.946624 0.831538 53.734295 3.425691 -8.076486 1.969559 -2.312752 -2.126559 -20.061412 -9.355743 3.584038 32.497263 7.835357 11.964365 -37.547702 0.000000 0.000000 0.000000 -14.116503 0.384704 -37.043398 14.571978 -8.589682 84.926459 -5.592594 -13.306694 -6.018550 0.000000 0.000000 0.000000 -1.125663 0.069881 -1.319607 -2.905391 1.252375 -21.435963 0.009225 10.350103 36.838353 5.625422 0.773053 -37.827399 0.000000 0.000000 0.000000 22.165246 -1.792714 2.302006 -83.289629 -20.077132 0.531018 -14.007655 -39.482921 7.261642 0.000000 0.000000 0.000000 -18.539603 -9.775761 -2.390740 92.810801 -0.592261 -5.958023 18.910058 28.481096 6.119672 0.000000 0.000000 0.000000 
